<svg width="1151" height="829" viewBox="0 0 1151 829" fill="none" xmlns="http://www.w3.org/2000/svg">
<path d="M61.1981 24.6393C38.9314 62.6393 29.9981 83.306 21.1981 118.373C13.7314 147.973 11.7314 166.373 11.7314 208.239C11.7314 233.039 12.3981 250.906 13.4647 258.239C18.2647 290.239 25.0647 316.373 34.3981 340.239L40.3981 355.306L37.7314 361.573C36.2647 365.039 31.9981 376.239 28.3981 386.373C6.79806 446.639 -2.40194 502.906 0.531398 557.839C4.26473 628.506 29.9981 690.106 74.3981 735.039C90.5314 751.306 99.5981 758.506 114.131 766.239C122.931 770.906 137.731 776.239 137.731 774.773C137.731 774.506 133.465 769.306 128.398 763.306C96.2647 726.106 75.0647 686.906 64.5314 645.039C57.9981 619.173 57.0647 610.506 57.1981 578.906C57.1981 546.506 59.3314 530.773 67.0647 503.039C73.7314 479.173 90.3981 438.239 93.3314 438.239C93.8647 438.239 100.131 443.973 107.065 450.906C113.998 457.973 122.531 465.839 125.998 468.639C129.465 471.306 132.265 474.506 132.265 475.573C132.265 476.639 131.065 481.173 129.598 485.573C125.198 498.906 121.731 522.373 121.731 539.839C121.731 603.839 151.331 669.039 195.465 702.373C219.998 720.906 245.331 729.306 309.065 740.239C358.665 748.639 400.398 756.773 428.398 763.439C443.465 767.039 458.131 770.373 461.065 770.906C463.998 771.306 469.198 772.639 472.665 773.706C479.998 776.106 487.731 774.639 491.731 770.239C494.131 767.706 493.998 767.039 491.065 752.506C488.398 739.306 481.198 712.906 478.398 705.573C476.931 701.973 495.465 720.106 508.931 735.573C525.465 754.639 532.131 763.973 553.331 797.973C563.998 815.039 572.798 828.906 572.798 828.639C573.731 826.906 571.065 747.573 569.865 740.639C557.331 664.506 526.265 596.773 475.731 534.639C453.198 507.039 413.865 470.639 383.731 449.706C322.798 407.173 289.465 379.439 247.731 336.773C193.331 281.173 150.665 221.973 120.398 160.239C97.1981 113.039 88.3981 84.506 81.0647 33.0393C78.3981 15.0393 76.2647 0.23934 75.9981 0.106006C75.8647 -0.0273269 69.1981 11.0393 61.1981 24.6393ZM76.6647 148.239C117.598 244.239 191.065 339.839 283.865 417.706C303.998 434.773 327.465 452.506 353.731 470.906C384.265 492.239 398.665 504.239 422.398 528.106C459.731 565.706 485.998 603.306 506.131 647.973C512.531 662.106 525.731 697.839 525.731 700.906C525.731 701.439 519.331 695.573 511.598 688.106C447.598 625.439 352.798 560.639 207.065 480.239C177.198 463.839 163.198 454.506 144.798 439.039C60.5314 368.106 25.3314 242.506 55.8647 121.573C57.7314 114.373 59.5981 107.839 59.9981 107.173C60.3981 106.506 62.7981 111.839 65.3314 119.039C67.7314 126.239 72.9314 139.439 76.6647 148.239ZM233.865 534.906L245.331 541.439L246.131 558.773C247.198 583.439 250.798 595.039 260.531 605.573C270.265 616.106 285.998 622.106 309.065 624.239C321.998 625.439 338.131 622.373 349.998 616.373L359.465 611.706L376.265 623.173C396.531 637.173 423.465 657.039 422.798 657.706C421.865 658.506 379.865 664.773 364.531 666.373C333.865 669.573 303.731 666.373 283.731 657.839C257.731 646.906 235.731 625.439 224.398 600.239C215.998 581.573 211.065 557.439 211.065 535.173V521.973L216.798 525.173C219.865 527.039 227.598 531.439 233.865 534.906Z" fill="#E9E9E9"/>
<path d="M1073.73 0.639221C1073.73 9.30589 1063.6 70.2393 1059.86 83.7059C1041.46 150.506 997.598 228.106 939.731 296.239C892.398 351.973 843.198 396.106 776.398 442.906C731.465 474.373 699.331 503.839 669.731 540.906C619.598 603.573 586.798 681.039 579.065 754.906C578.265 762.906 577.731 782.773 577.998 798.773L578.398 828.106L596.798 798.506C615.865 767.973 629.465 748.639 641.731 734.906C652.398 723.039 674.131 700.906 674.665 701.306C674.798 701.573 672.931 707.973 670.398 715.706C665.198 730.773 656.131 769.973 657.198 771.839C658.265 773.439 664.398 773.173 671.865 771.039C675.465 769.973 681.065 768.773 684.398 768.239C687.731 767.706 700.931 764.773 713.865 761.439C734.265 756.373 786.798 746.239 830.398 738.906C883.731 729.973 907.465 723.573 931.065 711.439C974.665 689.039 1007.86 644.773 1021.6 590.506C1030.8 554.373 1030.4 511.973 1020.8 481.173L1018.53 473.973L1027.73 465.839C1032.93 461.439 1041.46 453.306 1046.8 447.973C1052.13 442.639 1056.8 438.239 1057.2 438.239C1058.4 438.239 1068.4 459.973 1074.13 474.906C1080.93 493.039 1087.06 515.173 1090.66 534.906C1092.53 545.439 1093.06 555.173 1092.93 580.906C1092.93 611.439 1092.66 614.773 1089.33 630.906C1078.66 680.906 1053.86 729.173 1019.86 765.839C1015.73 770.239 1012.4 774.239 1012.4 774.639C1012.4 776.106 1025.73 771.706 1033.86 767.573C1046.26 761.306 1058.13 752.506 1071.6 739.573C1093.73 718.373 1108.13 698.106 1122.26 668.639C1152.66 605.573 1158.8 531.439 1140.4 449.573C1135.2 426.506 1126.13 396.373 1117.33 373.573L1110.13 354.906L1114 345.573C1124.66 319.839 1134.26 281.306 1137.86 250.239C1140.26 229.706 1139.86 182.373 1137.2 162.239C1130.13 108.106 1118.66 74.6393 1091.73 28.7726C1075.33 0.905914 1073.73 -1.62745 1073.73 0.639221ZM1091.06 108.106C1091.06 108.373 1092.66 114.506 1094.53 121.573C1103.46 155.039 1107.2 195.706 1104.66 230.773C1097.06 335.306 1048.93 417.573 966.398 467.173C959.065 471.573 945.598 479.306 936.398 484.239C853.731 529.439 774.398 579.039 720.398 619.306C684.931 645.706 666.931 660.906 641.465 686.106C631.998 695.306 624.398 702.506 624.398 701.973C624.398 701.573 627.465 692.239 631.198 681.306C638.931 658.639 657.331 620.239 670.398 599.573C699.731 553.306 741.065 509.839 785.731 478.506C817.865 455.973 831.998 445.573 846.931 433.839C938.665 360.906 1013.33 271.306 1059.6 178.506C1070 157.706 1083.33 126.106 1087.2 113.173C1088.13 110.106 1089.33 107.573 1090 107.573C1090.53 107.573 1091.06 107.839 1091.06 108.106ZM939.065 540.106C939.065 585.573 923.198 623.439 894.798 645.573C885.331 653.039 870.931 660.639 861.065 663.439C841.731 669.039 815.598 670.373 789.731 667.039C765.865 663.973 728.398 657.839 728.398 656.906C728.398 655.973 751.731 638.773 775.331 622.373L790.931 611.439L798.798 615.439C811.998 622.106 820.931 624.106 836.398 623.973C866.531 623.839 887.998 613.706 896.931 595.573C901.731 586.239 903.331 577.706 904.265 558.906L905.065 541.573L920.398 532.639C928.798 527.839 936.531 523.706 937.465 523.706C938.665 523.573 939.065 527.706 939.065 540.106Z" fill="#E9E9E9"/>
</svg>
